<svg xmlns="http://www.w3.org/2000/svg" viewBox="0 0 16 16" width="64" height="64" shape-rendering="crispEdges">
  <rect width="16" height="16" fill="none" />
  <rect x="5" y="2" width="6" height="1" fill="#2e7d32" />
  <rect x="4" y="3" width="8" height="1" fill="#2e7d32" />
  <rect x="3" y="4" width="10" height="1" fill="#2e7d32" />
  <rect x="2" y="5" width="12" height="1" fill="#2e7d32" />
  <rect x="2" y="6" width="1" height="4" fill="#2e7d32" />
  <rect x="13" y="6" width="1" height="4" fill="#2e7d32" />
  <rect x="3" y="10" width="10" height="1" fill="#2e7d32" />
  <rect x="4" y="11" width="8" height="1" fill="#2e7d32" />
  <rect x="5" y="12" width="6" height="1" fill="#2e7d32" />

  <rect x="6" y="6" width="4" height="4" fill="#fff5e6" />

  <rect x="4" y="6" width="1" height="1" fill="#c62828" />
  <rect x="11" y="6" width="1" height="1" fill="#c62828" />
  <rect x="4" y="9" width="1" height="1" fill="#c62828" />
  <rect x="11" y="9" width="1" height="1" fill="#c62828" />
</svg>
